{"title":"The Birdcage (1996) Robin Williams[Gay interest](Opt.MULTISUBS)","uid":4741333,"size":739850706,"categoryP":"video","categoryS":"movies","magnet":"?xt=urn:btih:7eef30673a7bfe5f7666ef8b834693084d94c934&amp;dn=The+Birdcage+%281996%29+Robin+Williams%5BGay+interest%5D%28Opt.MULTISUBS%29&amp;tr=udp%3A%2F%2Ftracker.openbittorrent.com%3A80&amp;tr=udp%3A%2F%2Fopen.demonii.com%3A1337&amp;tr=udp%3A%2F%2Ftracker.coppersurfer.tk%3A6969&amp;tr=udp%3A%2F%2Fexodus.desync.com%3A6969","seeders":14,"leechers":3,"uploader":"Kuthumi","files":-1,"time":1235577645,"description":"a.k.a. LÃƒÂ¥nta FjÃƒÂ¤drar (1996), LÃƒÂ¥nte FjÃƒÂ¦r (1996)\nThe Birdcage\nBirdcage\n\nOptional subtitles in separate idx/sub files: (Work in Windows Media Player etc.)\n\nDutch, English, English for the hearing impaired, Finnish, French, German, Norwegian, Polish, Portuguese, Spanish, Swedish. (Sorry, Danish friends, your language was not on the DVD.) &lt;a href=&quot;\nhttp://www.imdb.com/title/tt0115685/&quot; rel=&quot;nofollow&quot; target=&quot;_NEW&quot;&gt;\nhttp://www.imdb.com/title/tt0115685/&lt;/a&gt;\n\nClassic comedy with Robin Williams as the gay cabaret owner, featuring Gene Hackman (of all people!) in drag at the end.\n\nThis is a new and improved rip of the torrent I uploaded June, 2008. Since then, my ripping procedures have improved so much that I can offer much better quality with the same filesize, and lots of subtitles. The old torrent has been so popular that I thought it deserves an improved replacement. The old rip was only 512x288 pixels.\n\nWidescreen DVDrip XviD 2-pass 704x368, great stereo sound AC3.\nBurn tested, runs well in both my standalone DivX players.\n\nFormat/Info                      : Audio Video Interleave\nFile size                        : 695 MiB\nDuration                         : 1h 54mn\nOveral bit rate                  : 851 Kbps\n\nVideo\nFormat                           : MPEG-4 Visual\nFormat profile                   : Streaming Video@L1\nFormat settings, BVOP            : Yes\nFormat settings, QPel            : No\nFormat settings, GMC             : No warppoints\nFormat settings, Matrix          : Default\nMuxing mode                      : Packet Bitstream\nCodec ID                         : XVID\nCodec ID/Hint                    : XviD\nDuration                         : 1h 54mn\nBit rate                         : 713 Kbps\nWidth                            : 704 pixels\nHeight                           : 368 pixels\nDisplay aspect ratio             : 1.913\nFrame rate                       : 25.000 fps\nResolution                       : 8 bits\nColorimetry                      : 4:2:0\nScan type                        : Progressive\nBits/(Pixel*Frame)               : 0.110\nStream size                      : 582 MiB\nWriting library                  : XviD 1.2.0.dev47 (UTC 2006-11-01)\n\nAudio\nFormat                           : MPEG Audio\nFormat version                   : Version 1\nFormat profile                   : Layer 3\nCodec ID                         : 55\nCodec ID/Hint                    : MP3\nDuration                         : 1h 54mn\nBit rate mode                    : Constant\nBit rate                         : 128 Kbps\nMinimum bit rate                 : 128 Kbps\nChannel(s)                       : 2 channels\nSampling rate                    : 48.0 KHz\nResolution                       : 16 bits\nStream size                      : 104 MiB\nWriting library                  : LAME3.97 \nEncoding settings                : CBR\n\nSource: PAL retail 7.12 GiB (note that PAL/NTSC will give no problems for avi files)","torrent":{"xt":"urn:btih:7eef30673a7bfe5f7666ef8b834693084d94c934","amp;dn":"The+Birdcage+%281996%29+Robin+Williams%5BGay+interest%5D%28Opt.MULTISUBS%29","amp;tr":["udp%3A%2F%2Ftracker.openbittorrent.com%3A80","udp%3A%2F%2Fopen.demonii.com%3A1337","udp%3A%2F%2Ftracker.coppersurfer.tk%3A6969","udp%3A%2F%2Fexodus.desync.com%3A6969"],"infoHash":"7eef30673a7bfe5f7666ef8b834693084d94c934","infoHashBuffer":{"type":"Buffer","data":[126,239,48,103,58,123,254,95,118,102,239,139,131,70,147,8,77,148,201,52]},"announce":[],"urlList":[]}}